<?xml version="1.0" encoding="UTF-8"?>
<svg width="210mm" height="297mm" version="1.1" viewBox="0 0 210 297" xmlns="http://www.w3.org/2000/svg" xmlns:cc="http://creativecommons.org/ns#" xmlns:dc="http://purl.org/dc/elements/1.1/" xmlns:rdf="http://www.w3.org/1999/02/22-rdf-syntax-ns#">
<metadata>
<rdf:RDF>
<cc:Work rdf:about="">
<dc:format>image/svg+xml</dc:format>
<dc:type rdf:resource="http://purl.org/dc/dcmitype/StillImage"/>
<dc:title/>
</cc:Work>
</rdf:RDF>
</metadata>
<g transform="matrix(1.7857 0 0 1.7857 -81.193 -65.406)" fill="#fffffa">
<path d="m118.4 129.57c0 4.1317-3.048 7.5184-6.9088 7.5184-3.7931 0-6.9088-3.3867-6.9088-7.5184 0-4.1317 3.048-7.5184 6.9088-7.5184s6.9088 3.3867 6.9088 7.5184zm-31.631-7.5184c-3.8608 0-6.9088 3.3867-6.9088 7.5184 0 4.1317 3.1157 7.5184 6.9088 7.5184 3.8608 0 6.9088-3.3867 6.9088-7.5184 0.0677-4.1317-3.048-7.5184-6.9088-7.5184zm71.526-42.875v121.51c-17.064-15.08-11.607-10.088-31.428-28.516l3.5899 12.531h-76.81c-7.6539 0-13.885-6.2315-13.885-13.953v-91.575c0-7.7216 6.2315-13.953 13.885-13.953h90.763c7.6539 0 13.885 6.2315 13.885 13.953zm-19.304 64.211c0-21.81-9.7536-39.489-9.7536-39.489-9.7536-7.3152-19.033-7.112-19.033-7.112l-0.94826 1.0837c11.515 3.5221 16.866 8.6021 16.866 8.6021-16.09-8.8183-34.99-8.8199-50.597-1.9643-2.5061 1.1515-3.9963 1.9643-3.9963 1.9643s5.6219-5.3509 17.814-8.8731l-0.67734-0.8128s-9.2795-0.2032-19.033 7.112c0 0-9.7536 17.678-9.7536 39.489 0 0 5.6896 9.8213 20.659 10.295 0 0 2.5061-3.048 4.5381-5.6219-8.6021-2.5739-11.853-7.9925-11.853-7.9925 0.99642 0.69744 2.6395 1.6015 2.7771 1.6933 11.433 6.4024 27.672 8.5 42.266 2.3707 2.3707-0.88053 5.0123-2.1675 7.7893-3.9963 0 0-3.3867 5.5541-12.26 8.0603 2.032 2.5739 4.4704 5.4864 4.4704 5.4864 14.969-0.47413 20.726-10.295 20.726-10.295z" fill="#fffffa" stroke-width=".26458"/>
</g>
</svg>
