<?xml version="1.0" encoding="UTF-8"?>
<svg width="210mm" height="297mm" version="1.1" viewBox="0 0 210 297" xmlns="http://www.w3.org/2000/svg" xmlns:cc="http://creativecommons.org/ns#" xmlns:dc="http://purl.org/dc/elements/1.1/" xmlns:rdf="http://www.w3.org/1999/02/22-rdf-syntax-ns#">
<metadata>
<rdf:RDF>
<cc:Work rdf:about="">
<dc:format>image/svg+xml</dc:format>
<dc:type rdf:resource="http://purl.org/dc/dcmitype/StillImage"/>
<dc:title/>
</cc:Work>
</rdf:RDF>
</metadata>
<path d="m206.82 121.55c1.6123-1.2816 4.0101-0.0826 4.0101 1.943v84.543c0 10.955-8.8884 19.844-19.844 19.844h-171.98c-10.955 0-19.844-8.8883-19.844-19.844v-84.501c0-2.0671 2.3564-3.2246 4.0101-1.943 9.2604 7.1934 21.539 16.33 63.707 46.964 8.723 6.3665 23.44 19.761 38.117 19.678 14.759 0.12406 29.766-13.56 38.158-19.678 42.168-30.634 54.405-39.812 63.665-47.005zm-101.82 53.413c9.5911 0.16538 23.399-12.072 30.344-17.115 54.86-39.812 59.035-43.284 71.686-53.206 2.3978-1.8604 3.8034-4.7542 3.8034-7.8135v-7.8548c0-10.955-8.8884-19.844-19.844-19.844h-171.98c-10.955 0-19.844 8.8883-19.844 19.844v7.8548c0 3.0592 1.4056 5.9118 3.8034 7.8135 12.65 9.8805 16.826 13.395 71.686 53.206 6.9453 5.0437 20.753 17.281 30.344 17.115z" fill="#fff" stroke-width=".41341"/>
</svg>
