<?xml version="1.0" encoding="UTF-8"?>
<svg width="210mm" height="297mm" version="1.1" viewBox="0 0 210 297" xmlns="http://www.w3.org/2000/svg" xmlns:cc="http://creativecommons.org/ns#" xmlns:dc="http://purl.org/dc/elements/1.1/" xmlns:rdf="http://www.w3.org/1999/02/22-rdf-syntax-ns#">
<metadata>
<rdf:RDF>
<cc:Work rdf:about="">
<dc:format>image/svg+xml</dc:format>
<dc:type rdf:resource="http://purl.org/dc/dcmitype/StillImage"/>
<dc:title/>
</cc:Work>
</rdf:RDF>
</metadata>
<path d="m105.02 94.231c-30.032 0-54.257 24.23-54.257 54.269 0 30.039 24.224 54.269 54.257 54.269 30.032 0 54.257-24.23 54.257-54.269 0-30.039-24.224-54.269-54.257-54.269zm0 89.55c-19.408 0-35.274-15.822-35.274-35.282 0-19.459 15.819-35.282 35.274-35.282 19.455 0 35.274 15.822 35.274 35.282 0 19.459-15.866 35.282-35.274 35.282zm69.131-91.77c0 7.0375-5.6665 12.658-12.655 12.658-7.0359 0-12.655-5.6677-12.655-12.658 0-6.9902 5.6665-12.658 12.655-12.658 6.9886 0 12.655 5.6677 12.655 12.658zm35.935 12.847c-0.80278-16.956-4.6748-31.976-17.094-44.35-12.372-12.375-27.388-16.248-44.34-17.098-17.472-0.99186-69.839-0.99186-87.311 0-16.905 0.80293-31.921 4.6759-44.34 17.05-12.419 12.375-16.244 27.394-17.094 44.35-0.99163 17.476-0.99163 69.855 0 87.33 0.80275 16.956 4.6749 31.976 17.094 44.35 12.419 12.375 27.388 16.248 44.34 17.098 17.472 0.99184 69.839 0.99184 87.311 0 16.952-0.80294 31.968-4.6759 44.34-17.098 12.372-12.375 16.244-27.394 17.094-44.35 0.99162-17.476 0.99162-69.808 0-87.283zm-22.571 106.03c-3.6832 9.2573-10.814 16.389-20.116 20.12-13.93 5.5261-46.985 4.2508-62.379 4.2508-15.394 0-48.496 1.228-62.379-4.2508-9.2552-3.684-16.386-10.816-20.116-20.12-5.5248-13.933-4.2499-46.995-4.2499-62.392 0-15.397-1.2277-48.506 4.2499-62.392 3.6832-9.2573 10.814-16.389 20.116-20.12 13.93-5.5261 46.985-4.2508 62.379-4.2508 15.394 0 48.496-1.228 62.379 4.2508 9.2552 3.684 16.386 10.816 20.116 20.12 5.5248 13.933 4.2498 46.995 4.2498 62.392 0 15.397 1.275 48.506-4.2498 62.392z" fill="#fff" opacity=".97" stroke-width=".47226"/>
</svg>
